<?xml version="1.0" standalone="no"?>
<!DOCTYPE svg PUBLIC "-//W3C//DTD SVG 20010904//EN"
 "http://www.w3.org/TR/2001/REC-SVG-20010904/DTD/svg10.dtd">
<svg version="1.0" xmlns="http://www.w3.org/2000/svg"
 width="700.000000pt" height="700.000000pt" viewBox="0 0 700.000000 700.000000"
 preserveAspectRatio="xMidYMid meet">
<metadata>
Created by potrace 1.11, written by Peter Selinger 2001-2013
</metadata>
<g transform="translate(0.000000,700.000000) scale(0.100000,-0.100000)"
fill="#000000" stroke="none">
<path d="M2182 6138 c-47 -60 -124 -209 -152 -293 -18 -55 -33 -101 -34 -102
0 0 -26 -4 -56 -8 l-55 -7 -64 89 c-41 56 -95 114 -148 158 -82 68 -115 84
-141 67 -7 -5 -27 -60 -42 -123 -24 -92 -30 -136 -30 -225 l0 -111 -49 -22
-48 -23 -89 64 c-58 42 -126 79 -196 108 -99 40 -110 42 -134 29 l-26 -14 7
-115 c5 -91 14 -138 41 -224 l35 -109 -39 -40 -40 -39 -103 32 c-63 19 -142
36 -199 41 -141 12 -143 12 -161 -17 -15 -25 -14 -31 31 -138 28 -69 68 -141
101 -187 30 -41 58 -79 62 -85 4 -7 -5 -33 -19 -58 l-26 -46 -99 0 c-78 0
-126 -7 -224 -31 -115 -29 -125 -33 -134 -59 -9 -26 -3 -35 69 -122 54 -64
105 -112 164 -153 l86 -60 -6 -50 c-3 -27 -11 -55 -17 -61 -7 -7 -52 -24 -101
-39 -56 -17 -122 -47 -180 -82 -117 -72 -128 -82 -124 -112 5 -38 175 -139
306 -182 62 -20 104 -39 106 -49 3 -8 7 -33 11 -56 l6 -41 -84 -61 c-53 -38
-116 -98 -166 -156 -76 -88 -80 -95 -71 -123 10 -27 17 -30 128 -56 89 -20
143 -27 224 -27 l108 0 25 -51 26 -50 -64 -87 c-43 -59 -78 -123 -109 -198
l-46 -111 22 -25 21 -25 115 9 c86 7 141 18 220 44 l105 34 38 -38 39 -39 -36
-114 c-27 -88 -36 -140 -41 -226 -7 -111 -7 -111 18 -127 23 -16 29 -15 136
29 73 30 140 66 193 105 45 33 86 60 92 60 6 0 30 -10 54 -22 l42 -23 0 -103
c0 -75 6 -130 24 -200 13 -53 27 -109 30 -123 4 -19 14 -28 36 -33 28 -5 40 2
121 71 53 46 115 113 153 164 47 64 69 87 83 84 10 -2 35 -7 55 -10 l37 -6 31
-99 c22 -72 49 -129 96 -206 63 -100 68 -105 97 -102 27 3 38 15 92 103 41 66
73 135 96 203 33 101 34 102 69 108 19 3 44 7 55 9 15 3 34 -15 80 -81 39 -54
93 -112 154 -165 80 -68 98 -79 120 -74 14 4 27 8 29 10 2 2 17 54 33 117 23
91 29 135 29 224 l0 111 49 23 c29 13 54 19 62 15 8 -5 50 -34 94 -65 49 -35
121 -73 184 -98 99 -40 106 -41 129 -26 24 16 24 16 17 136 -6 97 -13 138 -41
221 l-34 101 41 42 41 42 102 -34 c75 -24 131 -35 216 -42 114 -9 115 -9 137
14 17 19 20 30 14 47 -53 137 -92 215 -147 290 l-64 87 25 50 25 50 108 0 c80
0 136 6 224 26 111 26 118 29 127 57 10 28 7 34 -67 121 -50 61 -107 114 -165
156 -86 63 -87 64 -82 99 13 81 8 75 117 110 73 23 132 50 203 95 87 53 100
66 103 91 3 28 -4 34 -105 96 -73 45 -139 77 -202 97 -52 16 -97 36 -101 43
-4 8 -10 33 -14 57 l-6 42 87 64 c53 39 116 98 159 148 87 103 86 101 75 131
-8 21 -25 28 -135 56 -99 24 -147 31 -226 31 l-100 0 -24 48 -24 48 60 83 c39
53 79 126 110 198 47 112 48 115 31 138 -20 27 -27 28 -164 16 -63 -6 -132
-21 -198 -42 l-101 -33 -40 39 -40 40 34 105 c28 84 36 128 42 225 l7 120 -26
14 c-24 13 -35 10 -131 -29 -70 -28 -137 -64 -198 -108 l-91 -65 -46 26 -46
26 -7 128 c-4 84 -15 160 -30 221 -36 139 -54 143 -176 40 -52 -44 -112 -108
-151 -161 l-65 -89 -50 7 c-27 3 -53 8 -58 11 -4 3 -19 44 -34 92 -17 56 -50
127 -93 199 -62 105 -68 113 -97 113 -17 0 -36 -6 -42 -12z m429 -2026 c146
-499 263 -908 258 -910 -8 -3 -221 26 -225 31 -1 1 -30 100 -65 220 -35 120
-66 221 -69 225 -3 5 -164 31 -358 58 l-353 50 -121 -194 c-67 -107 -127 -196
-134 -199 -13 -5 -213 22 -220 30 -3 2 224 365 503 805 279 440 510 798 513
796 3 -3 125 -414 271 -912z"/>
<path d="M2201 4420 c-217 -341 -289 -455 -287 -457 5 -6 536 -79 536 -75 0
11 -173 599 -180 612 -6 10 -25 -12 -69 -80z"/>
<path d="M5024 3943 c-18 -3 -30 -26 -63 -120 -38 -108 -41 -122 -41 -222 l0
-108 -47 -21 c-27 -12 -53 -23 -59 -24 -6 -2 -49 27 -95 63 -68 53 -103 72
-187 102 -115 41 -120 42 -145 23 -16 -12 -16 -21 -3 -137 12 -114 17 -131 59
-216 l46 -91 -40 -51 c-28 -35 -47 -50 -58 -47 -145 43 -181 47 -303 35 -108
-12 -122 -15 -135 -36 -15 -22 -13 -28 48 -129 56 -91 75 -113 147 -169 45
-36 82 -68 82 -73 -1 -4 -7 -32 -14 -62 l-12 -55 -103 -22 c-90 -20 -115 -30
-204 -86 -88 -55 -102 -68 -104 -93 -3 -27 5 -34 105 -95 91 -56 120 -69 194
-84 47 -10 92 -21 98 -25 10 -6 44 -121 37 -126 -1 0 -38 -29 -82 -63 -66 -52
-92 -81 -147 -167 -60 -92 -66 -107 -57 -128 10 -22 21 -25 133 -37 116 -14
125 -13 221 8 55 13 102 23 105 23 3 0 23 -22 43 -49 l38 -49 -46 -92 c-42
-83 -48 -104 -61 -213 -15 -117 -14 -121 4 -140 20 -19 21 -19 133 18 100 33
124 46 198 105 l85 67 58 -25 58 -25 1 -116 c0 -109 3 -123 38 -220 53 -145
56 -146 169 -40 78 73 96 96 138 182 l48 97 64 0 63 0 45 -97 c39 -84 57 -110
127 -180 77 -79 105 -94 133 -75 6 4 30 62 53 129 41 116 43 126 39 217 l-3
95 57 27 57 27 74 -60 c90 -74 88 -72 215 -117 151 -52 157 -44 128 159 -10
67 -24 113 -56 182 l-43 91 38 46 c20 25 42 46 49 46 6 -1 52 -11 103 -23 87
-22 98 -22 205 -10 62 6 118 12 124 13 6 0 16 10 21 23 9 20 2 37 -56 129 -56
91 -78 116 -146 169 -44 34 -81 63 -82 63 -1 1 5 29 14 63 l15 62 67 15 c36 8
82 18 101 21 45 9 244 135 248 158 5 26 -7 37 -116 105 -85 54 -111 64 -199
83 l-101 22 -12 65 c-8 41 -9 66 -3 71 6 3 42 31 82 61 59 45 83 74 137 159
57 90 65 107 55 127 -11 25 -19 27 -166 44 -81 9 -100 8 -192 -13 l-103 -24
-38 50 -39 50 47 97 c44 89 49 107 61 214 11 107 11 117 -5 135 -18 19 -20 19
-134 -21 -96 -33 -129 -50 -187 -96 -38 -30 -76 -60 -83 -65 -9 -7 -30 -2 -70
17 l-57 27 3 102 c3 99 2 106 -40 222 -55 153 -59 154 -182 38 -77 -73 -91
-92 -130 -177 l-45 -96 -63 0 -63 0 -43 93 c-38 83 -54 104 -135 183 -69 67
-97 89 -113 87z m683 -1155 c83 -172 156 -328 162 -347 19 -60 25 -165 11
-222 -42 -177 -182 -313 -375 -364 -103 -26 -196 -17 -308 33 -58 26 -153 119
-191 187 -39 70 -296 602 -296 612 0 10 190 106 197 100 2 -3 67 -135 145
-293 77 -159 153 -307 169 -329 36 -48 99 -92 146 -101 77 -14 205 38 250 102
51 73 54 163 10 269 -14 33 -81 176 -151 318 l-125 258 92 44 c50 24 97 44
103 44 6 1 78 -140 161 -311z"/>
</g>
</svg>
